<?xml version="1.0" encoding="UTF-8" standalone="no"?>
<svg xmlns:dc="http://purl.org/dc/elements/1.1/" xmlns:cc="http://creativecommons.org/ns#" xmlns:rdf="http://www.w3.org/1999/02/22-rdf-syntax-ns#" xmlns:svg="http://www.w3.org/2000/svg" xmlns="http://www.w3.org/2000/svg" viewBox="0 0 72 24.999999" version="1.1" id="svg3336"><defs id="defs3340"><clipPath id="clipPath3368" clipPathUnits="userSpaceOnUse"><path id="path3370" d="m 0,841.891 595.28,0 L 595.28,0 0,0 0,841.891 Z"/></clipPath><clipPath id="clipPath3866" clipPathUnits="userSpaceOnUse"><path id="path3868" d="m 0,841.891 595.28,0 L 595.28,0 0,0 0,841.891 Z"/></clipPath><clipPath id="clipPath3960" clipPathUnits="userSpaceOnUse"><path id="path3962" d="m 0,841.891 595.28,0 L 595.28,0 0,0 0,841.891 Z"/></clipPath><clipPath id="clipPath3984" clipPathUnits="userSpaceOnUse"><path id="path3986" d="m 0,841.891 595.28,0 L 595.28,0 0,0 0,841.891 Z"/></clipPath><clipPath id="clipPath4000" clipPathUnits="userSpaceOnUse"><path id="path4002" d="m 40.08,178.212 132.79,0 0,125.482 -132.79,0 0,-125.482 z"/></clipPath><clipPath id="clipPath4028" clipPathUnits="userSpaceOnUse"><path id="path4030" d="m 0,841.891 595.28,0 L 595.28,0 0,0 0,841.891 Z"/></clipPath><clipPath id="clipPath4048" clipPathUnits="userSpaceOnUse"><path id="path4050" d="m 0,841.891 595.28,0 L 595.28,0 0,0 0,841.891 Z"/></clipPath><clipPath id="clipPath4068" clipPathUnits="userSpaceOnUse"><path id="path4070" d="m 0,841.891 595.28,0 L 595.28,0 0,0 0,841.891 Z"/></clipPath><clipPath id="clipPath4088" clipPathUnits="userSpaceOnUse"><path id="path4090" d="m 0,841.891 595.28,0 L 595.28,0 0,0 0,841.891 Z"/></clipPath></defs><g transform="matrix(1.25,0,0,-1.25,0,25.000153)" id="g3344"><g transform="translate(-511.20825,-793.90258)" id="g3864" clip-path="url(#clipPath3866)"><g id="g3870" transform="translate(532.9727,808.8047)"><path d="m 0,0 c 0,-1.956 1.448,-3.399 3.869,-3.399 1.021,0 1.982,0.16 2.979,0.625 L 7.755,-4.009 C 6.5,-4.67 5.296,-5.019 3.445,-5.019 c -3.862,0 -6.7,1.86 -6.7,5.018 l 0,0.001 c 0,3.157 2.838,5.015 6.7,5.015 1.851,0 2.917,-0.269 4.219,-0.828 L 6.736,2.766 C 5.748,3.29 4.89,3.398 3.869,3.398 1.448,3.398 0,1.957 0,0.001" style="fill:#da1745;fill-opacity:1;fill-rule:nonzero;stroke:none" id="path3872"/></g><g id="g3874" transform="translate(547.7056,805.3472)"><path d="m 0,0 c -2.056,0 -3.191,1.545 -3.191,3.458 0,1.913 1.135,3.459 3.191,3.459 2.056,0 3.193,-1.546 3.193,-3.459 C 3.193,1.545 2.056,0 0,0 m 0,8.477 c -3.738,0 -6.434,-1.862 -6.434,-5.019 0,-3.159 2.696,-5.019 6.434,-5.019 3.739,0 6.436,1.86 6.436,5.019 0,3.157 -2.697,5.019 -6.436,5.019" style="fill:#da1745;fill-opacity:1;fill-rule:nonzero;stroke:none" id="path3876"/></g><g id="g3878" transform="translate(563.8594,808.0781)"><path d="m 0,0 0,-4.038 3.09,0 0,9.531 -3.09,0 0,-3.636 -4.722,0 0,3.636 -3.083,0 0,-9.531 3.083,0 0,4.038 L 0,0 Z" style="fill:#da1745;fill-opacity:1;fill-rule:nonzero;stroke:none" id="path3880"/></g><path d="m 527.855,813.571 -3.253,0 0,-9.531 3.253,0 0,9.531 z" style="fill:#da1745;fill-opacity:1;fill-rule:nonzero;stroke:none" id="path3882"/><g id="g3884" transform="translate(515.2705,809.208)"><path d="m 0,0 0,-0.912 c 1.529,-1.182 3.087,-2.757 4.232,-4.256 l 3.643,0 c -1.268,1.488 -3.212,3.257 -4.644,4.147 1.681,0.069 3.554,0.75 3.554,2.68 0,2.473 -2.645,2.928 -5.319,2.928 -2.185,0 -4.197,-0.101 -5.405,-0.2 l 0,-9.555 3.038,0 0,8.117 c 0.56,0.059 1.165,0.127 2.38,0.127 1.564,0 2.357,-0.516 2.357,-1.417 C 3.836,0.888 3.508,-0.034 0,0" style="fill:#da1745;fill-opacity:1;fill-rule:nonzero;stroke:none" id="path3886"/></g></g></g></svg>
